<svg width="154" height="26" viewBox="0 0 154 26" fill="none" xmlns="http://www.w3.org/2000/svg">
    <path
        d="M0.613281 0.536011H10.7695C13.1328 0.536011 14.985 0.610881 16.3262 0.76062C17.6738 0.91036 18.722 1.14473 19.4707 1.46375C20.2259 1.77625 20.9193 2.24825 21.5508 2.87976C22.1172 3.44617 22.5436 4.15906 22.8301 5.01843C23.123 5.8713 23.2695 6.78601 23.2695 7.76257C23.2695 8.72611 22.944 9.67989 22.293 10.6239C21.6419 11.5679 20.7435 12.4078 19.5977 13.1434C20.9323 13.5731 21.9414 14.1916 22.625 14.9989C23.3151 15.7997 23.6602 16.8381 23.6602 18.1141C23.6602 20.2951 22.931 21.965 21.4727 23.1239C21.1536 23.3778 20.8314 23.5927 20.5059 23.7684C20.1803 23.9442 19.7832 24.094 19.3145 24.2177C18.8457 24.3413 18.3802 24.439 17.918 24.5106C17.4557 24.5757 16.834 24.6278 16.0527 24.6669C15.2715 24.7059 14.5033 24.732 13.748 24.745C12.9993 24.7515 12.0065 24.7548 10.7695 24.7548H0.613281V21.6298H3.73828V3.66101H0.613281V0.536011ZM9.98828 3.66101V12.2548H11.5508C14.6758 12.2548 16.2383 10.8225 16.2383 7.95789C16.2383 7.3394 16.2057 6.81531 16.1406 6.38562C16.0755 5.94942 15.9583 5.54903 15.7891 5.18445C15.6263 4.81986 15.3984 4.53341 15.1055 4.32507C14.8125 4.11023 14.4382 3.94747 13.9824 3.83679C13.5267 3.7196 12.9766 3.66101 12.332 3.66101H9.98828ZM9.98828 15.3798V21.6298H12.332C13.901 21.6298 15.0078 21.3986 15.6523 20.9364C16.3034 20.4742 16.6289 19.6636 16.6289 18.5048C16.6289 17.7105 16.4661 17.092 16.1406 16.6493C15.8216 16.2001 15.3008 15.8778 14.5781 15.6825C13.8555 15.4807 12.8464 15.3798 11.5508 15.3798H9.98828ZM50.3789 24.7548H37.8789V21.6298H41.0039V15.3798H39.832C39.3438 15.3798 38.9368 15.4318 38.6113 15.536C38.2923 15.6337 38.0156 15.816 37.7812 16.0829C37.5469 16.3498 37.3516 16.6656 37.1953 17.0302C37.0456 17.3882 36.8828 17.8798 36.707 18.5048C36.5638 19.0191 36.4368 19.4585 36.3262 19.8231C36.2155 20.1877 36.0885 20.5718 35.9453 20.9755C35.8021 21.3726 35.6654 21.7111 35.5352 21.9911C35.4115 22.2645 35.265 22.5477 35.0957 22.8407C34.9264 23.1337 34.7507 23.3778 34.5684 23.5731C34.3926 23.7619 34.1908 23.9507 33.9629 24.1395C33.735 24.3283 33.4909 24.4781 33.2305 24.5887C32.9701 24.6994 32.6803 24.8003 32.3613 24.8915C32.0488 24.9826 31.707 25.0477 31.3359 25.0868C30.9648 25.1259 30.5579 25.1454 30.1152 25.1454C29.5033 25.1454 28.9531 25.0835 28.4648 24.9598C27.9831 24.8361 27.5762 24.6897 27.2441 24.5204C26.9121 24.3446 26.6191 24.0842 26.3652 23.7391C26.1178 23.3876 25.9225 23.0686 25.7793 22.7821C25.6361 22.4956 25.5091 22.092 25.3984 21.5712C25.2878 21.0503 25.2064 20.6141 25.1543 20.2626C25.1087 19.911 25.0534 19.4195 24.9883 18.788L27.7422 18.5048C27.8854 19.7287 28.0156 20.5393 28.1328 20.9364C28.3346 21.6591 28.6276 22.0204 29.0117 22.0204C29.1029 22.0204 29.1842 21.9943 29.2559 21.9423C29.334 21.8837 29.4023 21.7893 29.4609 21.6591C29.5195 21.5288 29.5684 21.3986 29.6074 21.2684C29.6465 21.1382 29.6888 20.9527 29.7344 20.7118C29.7799 20.4644 29.8158 20.2528 29.8418 20.077C29.8678 19.8947 29.9036 19.6408 29.9492 19.3153C29.9948 18.9833 30.0339 18.7131 30.0664 18.5048C30.3659 16.5451 31.0527 15.1063 32.127 14.1884C29.1908 12.9449 27.7227 10.8029 27.7227 7.76257C27.7227 6.78601 27.8659 5.8713 28.1523 5.01843C28.4453 4.15906 28.875 3.44617 29.4414 2.87976C30.0729 2.24825 30.763 1.77625 31.5117 1.46375C32.2669 1.14473 33.3151 0.91036 34.6562 0.76062C36.0039 0.610881 37.8594 0.536011 40.2227 0.536011H50.3789V3.66101H47.2539V21.6298H50.3789V24.7548ZM41.0039 3.66101H38.6602C38.0547 3.66101 37.5208 3.73588 37.0586 3.88562C36.5964 4.03536 36.222 4.23718 35.9355 4.49109C35.6491 4.745 35.4147 5.06075 35.2324 5.43835C35.0501 5.81596 34.9232 6.20658 34.8516 6.61023C34.7865 7.01388 34.7539 7.46309 34.7539 7.95789C34.7539 10.8225 36.3164 12.2548 39.4414 12.2548H41.0039V3.66101ZM57 21.3563C57.8008 21.799 58.9401 22.0204 60.418 22.0204C61.2383 22.0204 61.9447 21.965 62.5371 21.8544C63.1361 21.7437 63.6634 21.5581 64.1191 21.2977C64.5749 21.0308 64.9167 20.6662 65.1445 20.204C65.3789 19.7417 65.4961 19.1753 65.4961 18.5048C65.4961 17.4826 65.0599 16.7079 64.1875 16.1805C63.3151 15.6467 61.9284 15.3798 60.0273 15.3798V12.2548C60.6589 12.2548 61.235 12.1962 61.7559 12.079C62.2767 11.9553 62.7161 11.7893 63.0742 11.5809C63.4388 11.3661 63.7546 11.1219 64.0215 10.8485C64.2949 10.5751 64.5065 10.2756 64.6562 9.95007C64.8125 9.61804 64.9264 9.28927 64.998 8.96375C65.0697 8.63822 65.1055 8.30294 65.1055 7.95789C65.1055 4.83289 63.543 3.27039 60.418 3.27039C59.7018 3.27039 59.002 3.42338 58.3184 3.72937C57.6348 4.02885 57.0618 4.43575 56.5996 4.95007C57.2572 5.13888 57.7975 5.50997 58.2207 6.06335C58.6439 6.61674 58.8555 7.24825 58.8555 7.95789C58.8555 8.82377 58.5495 9.5627 57.9375 10.1747C57.332 10.7802 56.5964 11.0829 55.7305 11.0829C55.125 11.0829 54.5716 10.9266 54.0703 10.6141C53.5755 10.2951 53.1979 9.8752 52.9375 9.35437C52.5599 8.65125 52.3711 7.89278 52.3711 7.07898C52.3711 6.38888 52.5111 5.70854 52.791 5.03796C53.071 4.36739 53.4876 3.73914 54.041 3.1532C54.5944 2.56726 55.2487 2.04968 56.0039 1.60046C56.7656 1.15125 57.6608 0.796427 58.6895 0.536011C59.7246 0.275594 60.8216 0.145386 61.9805 0.145386C63.4323 0.145386 64.7181 0.269084 65.8379 0.516479C66.9642 0.757365 67.8952 1.09265 68.6309 1.52234C69.3665 1.94552 69.9688 2.47286 70.4375 3.10437C70.9128 3.73588 71.248 4.41622 71.4434 5.14539C71.6452 5.86804 71.7461 6.67533 71.7461 7.56726C71.7461 8.2769 71.6452 8.9377 71.4434 9.54968C71.248 10.1552 70.9844 10.6825 70.6523 11.1317C70.3268 11.5744 69.9329 11.9748 69.4707 12.3329C69.0085 12.691 68.5332 12.9872 68.0449 13.2216C67.5566 13.4494 67.0326 13.6415 66.4727 13.7977C67.1432 13.9019 67.7585 14.0484 68.3184 14.2372C68.8848 14.4195 69.4056 14.6538 69.8809 14.9403C70.3561 15.2268 70.7565 15.5588 71.082 15.9364C71.4141 16.3075 71.6712 16.7437 71.8535 17.245C72.0423 17.7463 72.1367 18.2964 72.1367 18.8954C72.1367 19.6311 72.0358 20.3016 71.834 20.9071C71.6322 21.5061 71.2871 22.0757 70.7988 22.6161C70.3171 23.1499 69.6953 23.5992 68.9336 23.9637C68.1719 24.3283 67.2018 24.6148 66.0234 24.8231C64.8516 25.038 63.5039 25.1454 61.9805 25.1454C60.0143 25.1454 58.3021 24.9045 56.8438 24.4227C55.3919 23.941 54.2819 23.2671 53.5137 22.4012C52.752 21.5354 52.3711 20.5295 52.3711 19.3837C52.3711 18.5699 52.5599 17.8114 52.9375 17.1083C53.1979 16.5874 53.5755 16.1708 54.0703 15.8583C54.5716 15.5393 55.125 15.3798 55.7305 15.3798C56.5964 15.3798 57.332 15.6858 57.9375 16.2977C58.5495 16.9032 58.8555 17.6389 58.8555 18.5048C58.8555 19.1363 58.6862 19.7092 58.3477 20.2235C58.0091 20.7378 57.5599 21.1154 57 21.3563ZM83.25 0.516479C84.3112 0.269084 85.4245 0.145386 86.5898 0.145386C87.7552 0.145386 88.8652 0.269084 89.9199 0.516479C90.9811 0.757365 91.9382 1.09591 92.791 1.5321C93.6504 1.9683 94.4414 2.48914 95.1641 3.0946C95.8867 3.70007 96.5117 4.37065 97.0391 5.10632C97.5664 5.83549 98.0124 6.61348 98.377 7.44031C98.748 8.26062 99.0247 9.11023 99.207 9.98914C99.3893 10.8615 99.4805 11.7469 99.4805 12.6454C99.4805 13.5438 99.3893 14.4325 99.207 15.3114C99.0247 16.1838 98.748 17.0334 98.377 17.8602C98.0124 18.6805 97.5664 19.4585 97.0391 20.1942C96.5117 20.9234 95.8867 21.5907 95.1641 22.1962C94.4414 22.8016 93.6504 23.3225 92.791 23.7587C91.9382 24.1949 90.9811 24.5334 89.9199 24.7743C88.8652 25.0217 87.7552 25.1454 86.5898 25.1454C85.4245 25.1454 84.3112 25.0217 83.25 24.7743C82.1953 24.5334 81.2383 24.1949 80.3789 23.7587C79.526 23.3225 78.7383 22.8016 78.0156 22.1962C77.293 21.5907 76.668 20.9234 76.1406 20.1942C75.6133 19.4585 75.1641 18.6805 74.793 17.8602C74.4284 17.0334 74.1549 16.1838 73.9727 15.3114C73.7904 14.4325 73.6992 13.5438 73.6992 12.6454C73.6992 11.7469 73.7904 10.8615 73.9727 9.98914C74.1549 9.11023 74.4284 8.26062 74.793 7.44031C75.1641 6.61348 75.6133 5.83549 76.1406 5.10632C76.668 4.37065 77.293 3.70007 78.0156 3.0946C78.7383 2.48914 79.526 1.9683 80.3789 1.5321C81.2383 1.09591 82.1953 0.757365 83.25 0.516479ZM88.7383 3.75867C88.0938 3.43315 87.3776 3.27039 86.5898 3.27039C85.8021 3.27039 85.0827 3.43315 84.4316 3.75867C83.7871 4.07768 83.237 4.52039 82.7812 5.08679C82.332 5.6532 81.9512 6.33354 81.6387 7.12781C81.3262 7.91557 81.0951 8.77169 80.9453 9.69617C80.8021 10.6206 80.7305 11.6037 80.7305 12.6454C80.7305 13.9475 80.8542 15.1617 81.1016 16.288C81.3555 17.4078 81.7201 18.3973 82.1953 19.2567C82.6706 20.1161 83.2826 20.7932 84.0312 21.288C84.7865 21.7762 85.6393 22.0204 86.5898 22.0204C87.5404 22.0204 88.39 21.7762 89.1387 21.288C89.8939 20.7932 90.5091 20.1161 90.9844 19.2567C91.4596 18.3973 91.821 17.4078 92.0684 16.288C92.3223 15.1617 92.4492 13.9475 92.4492 12.6454C92.4492 11.6037 92.3743 10.6206 92.2246 9.69617C92.0814 8.77169 91.8535 7.91557 91.541 7.12781C91.2285 6.33354 90.8444 5.6532 90.3887 5.08679C89.9395 4.52039 89.3893 4.07768 88.7383 3.75867ZM115.887 0.536011H128.387V3.66101H125.262V21.6298H128.387V24.7548H115.887V21.6298H119.012V15.3798H110.418V21.6298H113.543V24.7548H101.043V21.6298H104.168V3.66101H101.043V0.536011H113.543V3.66101H110.418V12.2548H119.012V3.66101H115.887V0.536011ZM130.73 3.66101V0.536011H144.012V3.66101H140.105V12.2548H141.668C142.951 12.2548 144.106 12.2938 145.135 12.3719C146.163 12.4436 147.143 12.564 148.074 12.7333C149.012 12.9025 149.819 13.1337 150.496 13.4266C151.173 13.7196 151.762 14.0809 152.264 14.5106C152.771 14.9338 153.149 15.4481 153.396 16.0536C153.65 16.6591 153.777 17.3459 153.777 18.1141C153.777 20.2886 153.048 21.9585 151.59 23.1239C151.206 23.4299 150.792 23.6805 150.35 23.8759C149.913 24.0712 149.448 24.2307 148.953 24.3544C148.458 24.4716 147.788 24.5594 146.941 24.618C146.102 24.6766 145.255 24.7157 144.402 24.7352C143.549 24.7483 142.378 24.7548 140.887 24.7548H130.73V21.6298H133.855V3.66101H130.73ZM140.105 15.3798V21.6298H142.449C144.018 21.6298 145.125 21.3986 145.77 20.9364C146.421 20.4742 146.746 19.6636 146.746 18.5048C146.746 17.7105 146.583 17.092 146.258 16.6493C145.939 16.2001 145.418 15.8778 144.695 15.6825C143.973 15.4807 142.964 15.3798 141.668 15.3798H140.105Z"
        fill="white" />
</svg>