<svg width="23" height="30" viewBox="0 0 23 30" fill="none" xmlns="http://www.w3.org/2000/svg">
    <path
        d="M6.50763 13.0116C6.50763 13.203 6.57143 13.3625 6.69903 13.4901C6.82663 13.6177 6.98613 13.6815 7.17753 13.6815C7.36893 13.6815 7.53375 13.6177 7.67198 13.4901C7.81022 13.3625 7.87933 13.203 7.87933 13.0116H6.50763ZM15.2802 13.0116C15.2802 13.203 15.344 13.3625 15.4716 13.4901C15.5992 13.6177 15.7587 13.6815 15.9501 13.6815C16.1415 13.6815 16.301 13.6177 16.4286 13.4901C16.5562 13.3625 16.62 13.203 16.62 13.0116H15.2802ZM16.62 13.0116V5.67453H15.2802V13.0116H16.62ZM16.62 5.67453C16.62 4.22839 16.1308 2.9896 15.1526 1.95816C14.1743 0.926725 12.9834 0.411007 11.5798 0.411007V1.78271C12.5793 1.78271 13.4459 2.1602 14.1796 2.91517C14.9133 3.67014 15.2802 4.58993 15.2802 5.67453H16.62ZM11.5798 0.411007C10.1549 0.411007 8.95331 0.926725 7.97503 1.95816C6.99676 2.9896 6.50763 4.22839 6.50763 5.67453H7.87933C7.87933 4.58993 8.24087 3.67014 8.96394 2.91517C9.68701 2.1602 10.5589 1.78271 11.5798 1.78271V0.411007ZM6.50763 5.67453V13.0116H7.87933V5.67453H6.50763ZM21.6283 29.8229H1.37171C0.988904 29.8229 0.664586 29.69 0.398752 29.4242C0.132917 29.1584 0 28.8447 0 28.4831V9.66205C0 9.27925 0.132917 8.95493 0.398752 8.68909C0.664586 8.42326 0.988904 8.29034 1.37171 8.29034H21.6283C22.0111 8.29034 22.3354 8.42326 22.6012 8.68909C22.8671 8.95493 23 9.27925 23 9.66205V28.4831C23 28.8447 22.8671 29.1584 22.6012 29.4242C22.3354 29.69 22.0111 29.8229 21.6283 29.8229ZM1.37171 9.66205V28.4831H21.6283V9.66205H1.37171Z"
        fill="white" />
</svg>